<mxfile host="app.diagrams.net" modified="2020-08-29T04:09:56.681Z" agent="5.0 (Windows NT 10.0; Win64; x64) AppleWebKit/537.36 (KHTML, like Gecko) Chrome/85.0.4183.83 Safari/537.36" etag="Y9OjnzW0bbgki6k4yx2B" version="13.6.5" type="github">
  <diagram id="nobor_LUOsg049POnIwr" name="Page-1">
    <mxGraphModel dx="1038" dy="548" grid="1" gridSize="10" guides="1" tooltips="1" connect="1" arrows="1" fold="1" page="1" pageScale="1" pageWidth="827" pageHeight="1169" math="0" shadow="0">
      <root>
        <mxCell id="0" />
        <mxCell id="1" parent="0" />
        <mxCell id="jAn-nTrb9Mvr7AarnYnv-17" style="edgeStyle=orthogonalEdgeStyle;rounded=0;orthogonalLoop=1;jettySize=auto;html=1;" edge="1" parent="1" source="jAn-nTrb9Mvr7AarnYnv-12" target="jAn-nTrb9Mvr7AarnYnv-14">
          <mxGeometry relative="1" as="geometry" />
        </mxCell>
        <mxCell id="jAn-nTrb9Mvr7AarnYnv-16" value="" style="edgeStyle=orthogonalEdgeStyle;rounded=0;orthogonalLoop=1;jettySize=auto;html=1;" edge="1" parent="1" source="jAn-nTrb9Mvr7AarnYnv-10" target="jAn-nTrb9Mvr7AarnYnv-14">
          <mxGeometry relative="1" as="geometry" />
        </mxCell>
        <mxCell id="jAn-nTrb9Mvr7AarnYnv-26" value="1 : 1" style="edgeStyle=orthogonalEdgeStyle;rounded=0;orthogonalLoop=1;jettySize=auto;html=1;" edge="1" parent="1" source="jAn-nTrb9Mvr7AarnYnv-20" target="jAn-nTrb9Mvr7AarnYnv-24">
          <mxGeometry relative="1" as="geometry" />
        </mxCell>
        <mxCell id="jAn-nTrb9Mvr7AarnYnv-20" value="Customer" style="swimlane;childLayout=stackLayout;horizontal=1;startSize=30;horizontalStack=0;rounded=1;fontSize=14;fontStyle=0;strokeWidth=2;resizeParent=0;resizeLast=1;shadow=0;dashed=0;align=center;" vertex="1" parent="1">
          <mxGeometry x="600" y="400" width="160" height="130" as="geometry" />
        </mxCell>
        <mxCell id="jAn-nTrb9Mvr7AarnYnv-21" value="+id&#xa;+제목&#xa;+타이틀&#xa;" style="align=left;strokeColor=none;fillColor=none;spacingLeft=4;fontSize=12;verticalAlign=top;resizable=0;rotatable=0;part=1;" vertex="1" parent="jAn-nTrb9Mvr7AarnYnv-20">
          <mxGeometry y="30" width="160" height="100" as="geometry" />
        </mxCell>
        <mxCell id="jAn-nTrb9Mvr7AarnYnv-32" value="1 : N" style="edgeStyle=orthogonalEdgeStyle;rounded=0;orthogonalLoop=1;jettySize=auto;html=1;" edge="1" parent="1" source="jAn-nTrb9Mvr7AarnYnv-24" target="jAn-nTrb9Mvr7AarnYnv-30">
          <mxGeometry relative="1" as="geometry" />
        </mxCell>
        <mxCell id="jAn-nTrb9Mvr7AarnYnv-24" value="Order" style="swimlane;childLayout=stackLayout;horizontal=1;startSize=30;horizontalStack=0;rounded=1;fontSize=14;fontStyle=0;strokeWidth=2;resizeParent=0;resizeLast=1;shadow=0;dashed=0;align=center;" vertex="1" parent="1">
          <mxGeometry x="360" y="400" width="160" height="130" as="geometry" />
        </mxCell>
        <mxCell id="jAn-nTrb9Mvr7AarnYnv-25" value="+id&#xa;+member_id&#xa;+주문금액(12000원)&#xa;+배송비&#xa;+할인&#xa;+총결제비용" style="align=left;strokeColor=none;fillColor=none;spacingLeft=4;fontSize=12;verticalAlign=top;resizable=0;rotatable=0;part=1;" vertex="1" parent="jAn-nTrb9Mvr7AarnYnv-24">
          <mxGeometry y="30" width="160" height="100" as="geometry" />
        </mxCell>
        <mxCell id="jAn-nTrb9Mvr7AarnYnv-44" value="Exhibition" style="swimlane;childLayout=stackLayout;horizontal=1;startSize=30;horizontalStack=0;rounded=1;fontSize=14;fontStyle=0;strokeWidth=2;resizeParent=0;resizeLast=1;shadow=0;dashed=0;align=center;" vertex="1" parent="1">
          <mxGeometry x="110" y="20" width="160" height="140" as="geometry" />
        </mxCell>
        <mxCell id="jAn-nTrb9Mvr7AarnYnv-45" value="+id&#xa;+전시회명&#xa;+시작일&#xa;+종료일&#xa;+사전등록시작일&#xa;+사전등록종료일&#xa;" style="align=left;strokeColor=none;fillColor=none;spacingLeft=4;fontSize=12;verticalAlign=top;resizable=0;rotatable=0;part=1;" vertex="1" parent="jAn-nTrb9Mvr7AarnYnv-44">
          <mxGeometry y="30" width="160" height="110" as="geometry" />
        </mxCell>
        <mxCell id="jAn-nTrb9Mvr7AarnYnv-49" value="Entrance" style="swimlane;childLayout=stackLayout;horizontal=1;startSize=30;horizontalStack=0;rounded=1;fontSize=14;fontStyle=0;strokeWidth=2;resizeParent=0;resizeLast=1;shadow=0;dashed=0;align=center;" vertex="1" parent="1">
          <mxGeometry x="360" y="20" width="160" height="140" as="geometry" />
        </mxCell>
        <mxCell id="jAn-nTrb9Mvr7AarnYnv-50" value="+id&#xa;+exhibition_id&#xa;+visitor_id&#xa;+입장일시&#xa;+유입경로&#xa;+등록구분" style="align=left;strokeColor=none;fillColor=none;spacingLeft=4;fontSize=12;verticalAlign=top;resizable=0;rotatable=0;part=1;" vertex="1" parent="jAn-nTrb9Mvr7AarnYnv-49">
          <mxGeometry y="30" width="160" height="110" as="geometry" />
        </mxCell>
        <mxCell id="jAn-nTrb9Mvr7AarnYnv-47" value="Visitor(참관객)" style="swimlane;childLayout=stackLayout;horizontal=1;startSize=30;horizontalStack=0;rounded=1;fontSize=14;fontStyle=0;strokeWidth=2;resizeParent=0;resizeLast=1;shadow=0;dashed=0;align=center;" vertex="1" parent="1">
          <mxGeometry x="600" y="30" width="160" height="120" as="geometry" />
        </mxCell>
        <mxCell id="jAn-nTrb9Mvr7AarnYnv-48" value="+id&#xa;+이름&#xa;+성&#xa;" style="align=left;strokeColor=none;fillColor=none;spacingLeft=4;fontSize=12;verticalAlign=top;resizable=0;rotatable=0;part=1;" vertex="1" parent="jAn-nTrb9Mvr7AarnYnv-47">
          <mxGeometry y="30" width="160" height="90" as="geometry" />
        </mxCell>
        <mxCell id="jAn-nTrb9Mvr7AarnYnv-30" value="OrderItem" style="swimlane;childLayout=stackLayout;horizontal=1;startSize=30;horizontalStack=0;rounded=1;fontSize=14;fontStyle=0;strokeWidth=2;resizeParent=0;resizeLast=1;shadow=0;dashed=0;align=center;" vertex="1" parent="1">
          <mxGeometry x="360" y="610" width="160" height="120" as="geometry" />
        </mxCell>
        <mxCell id="jAn-nTrb9Mvr7AarnYnv-31" value="+id&#xa;+order_id&#xa;+product_id&#xa;+주문금액(6500원)&#xa;" style="align=left;strokeColor=none;fillColor=none;spacingLeft=4;fontSize=12;verticalAlign=top;resizable=0;rotatable=0;part=1;" vertex="1" parent="jAn-nTrb9Mvr7AarnYnv-30">
          <mxGeometry y="30" width="160" height="90" as="geometry" />
        </mxCell>
        <mxCell id="jAn-nTrb9Mvr7AarnYnv-33" value="1 : 1" style="edgeStyle=orthogonalEdgeStyle;rounded=0;orthogonalLoop=1;jettySize=auto;html=1;" edge="1" parent="1" source="jAn-nTrb9Mvr7AarnYnv-22" target="jAn-nTrb9Mvr7AarnYnv-30">
          <mxGeometry relative="1" as="geometry" />
        </mxCell>
        <mxCell id="jAn-nTrb9Mvr7AarnYnv-22" value="Coffee" style="swimlane;childLayout=stackLayout;horizontal=1;startSize=30;horizontalStack=0;rounded=1;fontSize=14;fontStyle=0;strokeWidth=2;resizeParent=0;resizeLast=1;shadow=0;dashed=0;align=center;" vertex="1" parent="1">
          <mxGeometry x="120" y="610" width="160" height="120" as="geometry" />
        </mxCell>
        <mxCell id="jAn-nTrb9Mvr7AarnYnv-23" value="+id&#xa;+제목 (1리터 아메리카노)&#xa;+가격(6500원)" style="align=left;strokeColor=none;fillColor=none;spacingLeft=4;fontSize=12;verticalAlign=top;resizable=0;rotatable=0;part=1;" vertex="1" parent="jAn-nTrb9Mvr7AarnYnv-22">
          <mxGeometry y="30" width="160" height="90" as="geometry" />
        </mxCell>
        <mxCell id="jAn-nTrb9Mvr7AarnYnv-40" value="" style="edgeStyle=orthogonalEdgeStyle;rounded=0;orthogonalLoop=1;jettySize=auto;html=1;" edge="1" parent="1" source="jAn-nTrb9Mvr7AarnYnv-34" target="jAn-nTrb9Mvr7AarnYnv-38">
          <mxGeometry relative="1" as="geometry" />
        </mxCell>
        <mxCell id="jAn-nTrb9Mvr7AarnYnv-12" value="Post" style="swimlane;childLayout=stackLayout;horizontal=1;startSize=30;horizontalStack=0;rounded=1;fontSize=14;fontStyle=0;strokeWidth=2;resizeParent=0;resizeLast=1;shadow=0;dashed=0;align=center;" vertex="1" parent="1">
          <mxGeometry x="110" y="220" width="160" height="120" as="geometry" />
        </mxCell>
        <mxCell id="jAn-nTrb9Mvr7AarnYnv-13" value="+id&#xa;+제목&#xa;+타이틀&#xa;" style="align=left;strokeColor=none;fillColor=none;spacingLeft=4;fontSize=12;verticalAlign=top;resizable=0;rotatable=0;part=1;" vertex="1" parent="jAn-nTrb9Mvr7AarnYnv-12">
          <mxGeometry y="30" width="160" height="90" as="geometry" />
        </mxCell>
        <mxCell id="jAn-nTrb9Mvr7AarnYnv-10" value="Member" style="swimlane;childLayout=stackLayout;horizontal=1;startSize=30;horizontalStack=0;rounded=1;fontSize=14;fontStyle=0;strokeWidth=2;resizeParent=0;resizeLast=1;shadow=0;dashed=0;align=center;" vertex="1" parent="1">
          <mxGeometry x="600" y="220" width="160" height="120" as="geometry" />
        </mxCell>
        <mxCell id="jAn-nTrb9Mvr7AarnYnv-11" value="+id&#xa;+이름&#xa;+성&#xa;+가입일&#xa;" style="align=left;strokeColor=none;fillColor=none;spacingLeft=4;fontSize=12;verticalAlign=top;resizable=0;rotatable=0;part=1;" vertex="1" parent="jAn-nTrb9Mvr7AarnYnv-10">
          <mxGeometry y="30" width="160" height="90" as="geometry" />
        </mxCell>
        <mxCell id="jAn-nTrb9Mvr7AarnYnv-14" value="Recommend" style="swimlane;childLayout=stackLayout;horizontal=1;startSize=30;horizontalStack=0;rounded=1;fontSize=14;fontStyle=0;strokeWidth=2;resizeParent=0;resizeLast=1;shadow=0;dashed=0;align=center;" vertex="1" parent="1">
          <mxGeometry x="360" y="220" width="160" height="120" as="geometry" />
        </mxCell>
        <mxCell id="jAn-nTrb9Mvr7AarnYnv-15" value="+id&#xa;+post_id&#xa;+member_id&#xa;" style="align=left;strokeColor=none;fillColor=none;spacingLeft=4;fontSize=12;verticalAlign=top;resizable=0;rotatable=0;part=1;" vertex="1" parent="jAn-nTrb9Mvr7AarnYnv-14">
          <mxGeometry y="30" width="160" height="90" as="geometry" />
        </mxCell>
        <mxCell id="jAn-nTrb9Mvr7AarnYnv-43" style="edgeStyle=orthogonalEdgeStyle;rounded=0;orthogonalLoop=1;jettySize=auto;html=1;" edge="1" parent="1" source="jAn-nTrb9Mvr7AarnYnv-44" target="jAn-nTrb9Mvr7AarnYnv-49">
          <mxGeometry relative="1" as="geometry" />
        </mxCell>
        <mxCell id="jAn-nTrb9Mvr7AarnYnv-46" value="" style="edgeStyle=orthogonalEdgeStyle;rounded=0;orthogonalLoop=1;jettySize=auto;html=1;" edge="1" parent="1" source="jAn-nTrb9Mvr7AarnYnv-47" target="jAn-nTrb9Mvr7AarnYnv-49">
          <mxGeometry relative="1" as="geometry" />
        </mxCell>
        <mxCell id="jAn-nTrb9Mvr7AarnYnv-41" value="OrderItem" style="swimlane;childLayout=stackLayout;horizontal=1;startSize=30;horizontalStack=0;rounded=1;fontSize=14;fontStyle=0;strokeWidth=2;resizeParent=0;resizeLast=1;shadow=0;dashed=0;align=center;" vertex="1" parent="1">
          <mxGeometry x="460" y="710" width="160" height="120" as="geometry" />
        </mxCell>
        <mxCell id="jAn-nTrb9Mvr7AarnYnv-42" value="+id&#xa;+order_id&#xa;+product_id (까페라떼)&#xa;+주문금액(5500원)&#xa;" style="align=left;strokeColor=none;fillColor=none;spacingLeft=4;fontSize=12;verticalAlign=top;resizable=0;rotatable=0;part=1;" vertex="1" parent="jAn-nTrb9Mvr7AarnYnv-41">
          <mxGeometry y="30" width="160" height="90" as="geometry" />
        </mxCell>
        <mxCell id="jAn-nTrb9Mvr7AarnYnv-34" value="Order" style="swimlane;fontStyle=0;childLayout=stackLayout;horizontal=1;startSize=26;fillColor=none;horizontalStack=0;resizeParent=1;resizeParentMax=0;resizeLast=0;collapsible=1;marginBottom=0;" vertex="1" parent="1">
          <mxGeometry x="80" y="920" width="190" height="78" as="geometry" />
        </mxCell>
        <mxCell id="jAn-nTrb9Mvr7AarnYnv-36" value="+ orderItems: List&lt;OrderItem&gt;" style="text;strokeColor=none;fillColor=none;align=left;verticalAlign=top;spacingLeft=4;spacingRight=4;overflow=hidden;rotatable=0;points=[[0,0.5],[1,0.5]];portConstraint=eastwest;" vertex="1" parent="jAn-nTrb9Mvr7AarnYnv-34">
          <mxGeometry y="26" width="190" height="26" as="geometry" />
        </mxCell>
        <mxCell id="jAn-nTrb9Mvr7AarnYnv-51" value="+ price: long" style="text;strokeColor=none;fillColor=none;align=left;verticalAlign=top;spacingLeft=4;spacingRight=4;overflow=hidden;rotatable=0;points=[[0,0.5],[1,0.5]];portConstraint=eastwest;" vertex="1" parent="jAn-nTrb9Mvr7AarnYnv-34">
          <mxGeometry y="52" width="190" height="26" as="geometry" />
        </mxCell>
        <mxCell id="jAn-nTrb9Mvr7AarnYnv-38" value="OrderItem" style="swimlane;fontStyle=0;childLayout=stackLayout;horizontal=1;startSize=26;fillColor=none;horizontalStack=0;resizeParent=1;resizeParentMax=0;resizeLast=0;collapsible=1;marginBottom=0;" vertex="1" parent="1">
          <mxGeometry x="80" y="1052" width="190" height="52" as="geometry" />
        </mxCell>
        <mxCell id="jAn-nTrb9Mvr7AarnYnv-39" value="+ order: Order" style="text;strokeColor=none;fillColor=none;align=left;verticalAlign=top;spacingLeft=4;spacingRight=4;overflow=hidden;rotatable=0;points=[[0,0.5],[1,0.5]];portConstraint=eastwest;" vertex="1" parent="jAn-nTrb9Mvr7AarnYnv-38">
          <mxGeometry y="26" width="190" height="26" as="geometry" />
        </mxCell>
      </root>
    </mxGraphModel>
  </diagram>
</mxfile>
